<?xml version="1.0" encoding="UTF-8" standalone="no"?>
<!-- Created with Inkscape (http://www.inkscape.org/) -->

<svg
   width="210mm"
   height="297mm"
   viewBox="0 0 210 297"
   version="1.1"
   id="svg5"
   xml:space="preserve"
   inkscape:version="1.2.2 (732a01da63, 2022-12-09)"
   sodipodi:docname="drawing-1.svg"
   xmlns:inkscape="http://www.inkscape.org/namespaces/inkscape"
   xmlns:sodipodi="http://sodipodi.sourceforge.net/DTD/sodipodi-0.dtd"
   xmlns:xlink="http://www.w3.org/1999/xlink"
   xmlns="http://www.w3.org/2000/svg"
   xmlns:svg="http://www.w3.org/2000/svg"><sodipodi:namedview
     id="namedview7"
     pagecolor="#ffffff"
     bordercolor="#000000"
     borderopacity="0.25"
     inkscape:showpageshadow="2"
     inkscape:pageopacity="0.0"
     inkscape:pagecheckerboard="0"
     inkscape:deskcolor="#d1d1d1"
     inkscape:document-units="mm"
     showgrid="false"
     inkscape:zoom="1.4142136"
     inkscape:cx="397.74755"
     inkscape:cy="157.33125"
     inkscape:window-width="1920"
     inkscape:window-height="991"
     inkscape:window-x="2391"
     inkscape:window-y="-9"
     inkscape:window-maximized="1"
     inkscape:current-layer="layer1"
     showguides="true"><sodipodi:guide
       position="7.4835464,314.39925"
       orientation="0,-1"
       id="guide467"
       inkscape:locked="false" /></sodipodi:namedview><defs
     id="defs2"><linearGradient
       inkscape:collect="always"
       id="linearGradient2432"><stop
         style="stop-color:#000000;stop-opacity:1;"
         offset="0"
         id="stop2428" /><stop
         style="stop-color:#000000;stop-opacity:0;"
         offset="1"
         id="stop2430" /></linearGradient><linearGradient
       id="linearGradient1422"
       inkscape:swatch="solid"><stop
         style="stop-color:#ffffff;stop-opacity:1;"
         offset="0"
         id="stop1420" /></linearGradient><linearGradient
       inkscape:collect="always"
       xlink:href="#linearGradient2432"
       id="linearGradient2434"
       x1="148.18044"
       y1="63.478564"
       x2="171.98954"
       y2="63.478564"
       gradientUnits="userSpaceOnUse"
       gradientTransform="matrix(1.7027467,0,0,1.4591104,-140.68668,-73.351805)" /></defs><g
     inkscape:label="Layer 1"
     inkscape:groupmode="layer"
     id="layer1"><g
       id="g312"
       transform="matrix(0.26458333,0,0,0.26458333,6.0612244,-0.35654263)"><symbol
         id="b"
         viewBox="-59.321 -343.358 118.642 343.358">
    <path
   fill="#ffcc00"
   stroke="#987b37"
   stroke-miterlimit="10"
   stroke-width="2.3175"
   d="m 6.478,-50.716 c 0,-3.503 -2.84,-6.343 -6.344,-6.343 -3.503,0 -6.343,2.84 -6.343,6.343 0,3.504 2.84,6.344 6.343,6.344 3.504,0 6.344,-2.84 6.344,-6.344 z"
   id="path161" />
    <path
   fill="#ffcc00"
   stroke="#987b37"
   stroke-linecap="round"
   stroke-width="2.3175"
   d="m 2.5,-44.753 c 0.531,0.461 1.086,2.123 0.568,2.839 0.946,0 1.516,0.189 2.083,0.757 0.568,0.569 0.947,1.326 0.947,2.083 0,0.947 -0.379,1.514 -0.947,2.083 -0.567,0.568 -1.325,0.946 -2.083,0.946 -0.378,0 -0.757,-0.19 -1.137,-0.19 v 14.77 h 6.628 c -0.189,-0.38 -0.189,-0.758 -0.189,-0.947 0,-0.756 0.188,-1.517 0.946,-2.083 0.376,-0.567 1.135,-0.756 2.081,-0.946 0.758,0.19 1.326,0.379 1.893,0.946 0.569,0.567 0.948,1.328 0.948,2.083 0.189,-0.189 0.379,-0.189 0.758,-0.189 0.756,0 1.513,0.189 2.081,0.947 0.569,0.567 0.758,1.135 0.946,1.892 -0.188,0.947 -0.377,1.515 -0.946,2.083 -0.568,0.568 -1.325,0.947 -2.081,0.947 -0.379,0 -0.569,-0.189 -0.758,-0.189 0,0.757 -0.379,1.515 -0.948,2.082 -0.567,0.567 -1.135,0.758 -1.893,0.758 -0.946,0 -1.705,-0.19 -2.081,-0.758 -0.758,-0.567 -0.946,-1.325 -0.946,-2.082 0,-0.38 0,-0.758 0.188,-1.137 H 1.93 v 7.574 c 0.38,-0.188 0.759,-0.188 1.137,-0.188 0.757,0 1.516,0.188 2.083,0.758 0.568,0.566 0.947,1.322 0.947,2.081 0,0.945 -0.379,1.515 -0.947,2.083 -0.567,0.567 -1.136,0.944 -2.083,0.944 0.19,0.19 0.19,0.379 0.19,0.759 0,0.758 -0.379,1.515 -0.758,2.083 -0.756,0.567 -1.325,0.945 -2.082,0.756 -0.947,0.189 -1.515,-0.189 -2.084,-0.756 -0.567,-0.568 -0.946,-1.325 -0.946,-2.083 0,-0.38 0,-0.568 0.19,-0.759 -0.946,0 -1.514,-0.377 -2.083,-0.945 -0.567,-0.568 -0.757,-1.139 -0.757,-2.083 0,-0.759 0.19,-1.515 0.757,-2.081 0.569,-0.569 1.325,-0.758 2.083,-0.758 h 0.946 v -7.386 h -6.438 c 0.19,0.379 0.19,0.757 0.19,1.137 0,0.757 -0.19,1.515 -0.757,2.082 -0.568,0.567 -1.326,0.758 -2.083,0.758 -0.947,0 -1.514,-0.19 -2.083,-0.758 -0.569,-0.567 -0.757,-1.325 -0.757,-2.082 -0.379,0 -0.569,0.189 -0.947,0.189 -0.757,0 -1.515,-0.379 -2.082,-0.947 -0.569,-0.568 -0.758,-1.136 -0.758,-2.083 0,-0.757 0.189,-1.324 0.758,-1.892 0.567,-0.758 1.325,-0.947 2.082,-0.947 0.378,0 0.568,0 0.947,0.189 0,-0.756 0.188,-1.517 0.757,-2.083 0.568,-0.567 1.135,-0.756 2.083,-0.946 0.757,0.19 1.515,0.379 2.083,0.946 0.567,0.567 0.757,1.328 0.757,2.083 v 0.946 h 6.248 v -14.77 c -0.378,0 -0.567,0.19 -0.946,0.19 -0.758,0 -1.514,-0.378 -2.083,-0.946 -0.567,-0.569 -0.757,-1.136 -0.757,-2.083 0,-0.757 0.19,-1.514 0.757,-2.083 0.569,-0.567 1.138,-0.757 2.083,-0.757 -0.538,-0.7 0.165,-2.377 0.556,-2.794 1.175,-1.25 2.797,-1.404 4.367,-0.043 z"
   id="path163" />
    <path
   fill="#ffcc00"
   stroke="#987b37"
   stroke-miterlimit="10"
   stroke-width="2.3175"
   d="m 17.647,-148.129 -10e-4,42.22 10e-4,0.001 h 4.733 l -4.544,4.544 h -0.002 c 3.029,3.218 4.733,7.574 4.733,13.063 0,6.25 -3.787,12.498 -11.172,18.557 -4.733,3.787 -8.096,8.129 -10.017,12.809 -0.73,-0.193 -2.058,-0.193 -2.856,0.065 -1.892,-4.733 -5.112,-9.087 -10.035,-12.874 -7.384,-6.06 -10.981,-12.307 -10.981,-18.557 0,-5.488 1.516,-9.845 4.543,-13.063 h 0.001 l -4.543,-4.544 h 4.922 v -42.221 z"
   id="path165" />
    <path
   fill="#5c8172"
   stroke="#987b37"
   stroke-miterlimit="10"
   stroke-width="2.3175"
   d="m -17.381,-148.129 c -3.029,-10.226 -9.656,-19.691 -20.07,-28.214 -13.821,-11.169 -20.637,-22.527 -20.637,-34.267 -0.19,-2.082 0,-4.167 0.376,-6.061 0.761,-7.384 3.6,-13.632 8.333,-18.555 h 10e-4 l -8.709,-8.518 H 57.784 l -8.518,8.519 h -10e-4 c 4.73,4.922 7.572,11.17 8.329,18.554 0.379,1.894 0.568,3.979 0.568,6.061 -0.189,11.739 -7.005,23.098 -20.826,34.267 -10.412,8.522 -17.039,17.988 -20.259,28.214 z"
   id="path167" />
    <path
   fill="none"
   stroke="#987b37"
   stroke-linecap="round"
   stroke-width="2.3175"
   d="m -17.95,-101.364 h 35.786 m -0.189,-4.544 h -35.218 m 35.218,-34.838 h -35.218 m 0.19,-7.383 h 34.458 m -22.908,42.221 v -34.838 m 11.738,34.838 v -34.838 m -11.738,28.211 c -3.785,4.923 -7.573,4.923 -11.739,0"
   id="path169" />
    <path
   fill="none"
   stroke="#987b37"
   stroke-linecap="round"
   stroke-width="2.3175"
   d="m 5.907,-112.535 c -4.164,5.301 -8.142,5.301 -11.739,0 m 23.479,0 c -4.356,5.112 -8.142,5.112 -11.739,0 m 50.742,-109.625 -74.031,74.031 m -17.608,-25.939 69.676,-69.674 m -47.145,0 -43.736,43.924 m -0.569,-22.342 73.84,74.031 m 17.987,-26.319 -69.296,-69.294 m 41.843,0 46.955,47.141 m -103.942,-38.623 h 98.642"
   id="path171" />
    <path
   fill="#ffffff"
   stroke="#987b37"
   stroke-miterlimit="10"
   stroke-width="2.3175"
   d="m 49.266,-342.199 v 98.46 h -98.642 v -98.46 z"
   id="path173" />
    <path
   fill="#7a7163"
   stroke="#987b37"
   stroke-miterlimit="10"
   stroke-width="2.3175"
   d="m 1.363,-259.271 c -3.218,0 -5.87,-1.324 -8.141,-3.786 -2.272,-2.46 -3.408,-5.49 -3.408,-8.898 v -61.725 h 23.099 v 61.725 c 0,3.408 -1.137,6.438 -3.408,8.898 -2.083,2.462 -4.922,3.786 -8.142,3.786 z"
   id="path175" />
  </symbol><symbol
         id="a"
         viewBox="-57.799 -326.214 115.598 326.215">
    <path
   fill="#ffcc00"
   stroke="#987b37"
   stroke-miterlimit="10"
   stroke-width="2.3175"
   d="m 6.154,-48.12 c 0,-3.293 -2.67,-5.963 -5.964,-5.963 -3.294,0 -5.963,2.67 -5.963,5.963 0,3.293 2.67,5.963 5.963,5.963 3.293,0 5.964,-2.67 5.964,-5.963 z"
   id="path178" />
    <path
   fill="#ffcc00"
   stroke="#987b37"
   stroke-linecap="round"
   stroke-width="2.3175"
   d="m 0.475,-43.423 c 1.314,0.003 2.658,1.266 2.652,2.836 -10e-4,0.381 0,0.567 0,0.758 0.566,0 1.324,0.379 1.701,0.758 0.568,0.567 0.947,1.325 0.947,2.083 0,0.757 -0.379,1.326 -0.947,1.893 -0.566,0.568 -1.135,0.759 -1.893,0.759 -0.377,0 -0.568,0 -0.947,-0.19 v 14.01 h 6.061 v -0.756 c 0,-0.758 0.189,-1.515 0.758,-2.083 0.568,-0.379 1.135,-0.757 1.893,-0.757 0.758,0 1.516,0.378 2.082,0.757 0.379,0.568 0.756,1.325 0.756,2.083 0.191,-0.189 0.381,-0.189 0.76,-0.189 0.756,0 1.324,0.189 1.891,0.758 0.57,0.566 0.76,1.325 0.949,2.082 -0.189,0.757 -0.379,1.323 -0.949,1.893 -0.566,0.568 -1.135,0.758 -1.891,0.758 h -0.76 c 0,0.756 -0.377,1.325 -0.756,1.893 -0.566,0.379 -1.324,0.758 -2.082,0.758 -0.758,0 -1.324,-0.379 -1.893,-0.758 -0.568,-0.567 -0.758,-1.137 -0.758,-2.083 -0.189,-0.189 0,-0.568 0,-0.947 H 1.988 v 7.005 c 0.379,0 0.57,0 0.947,-0.188 0.758,0.188 1.326,0.379 1.893,0.946 0.568,0.564 0.947,1.133 0.947,1.889 0,0.758 -0.379,1.514 -0.947,1.893 -0.377,0.569 -1.135,0.948 -1.701,0.948 v 0.756 c 0,0.758 -0.191,1.325 -0.76,1.894 -0.566,0.568 -1.135,0.945 -1.892,0.756 -0.946,0.189 -1.513,-0.188 -2.083,-0.757 -0.567,-0.568 -0.757,-1.136 -0.757,-1.894 v -0.756 c -0.756,0 -1.325,-0.379 -1.894,-0.948 -0.567,-0.379 -0.758,-1.135 -0.758,-1.893 0,-0.756 0.191,-1.325 0.758,-1.893 0.568,-0.567 1.325,-0.758 2.083,-0.946 0.189,0.188 0.567,0.188 0.757,0.188 v -7.005 h -6.06 c 0.19,0.379 0.19,0.758 0.19,0.947 0,0.945 -0.19,1.515 -0.758,2.083 -0.567,0.379 -1.135,0.758 -1.892,0.758 -0.947,0 -1.514,-0.379 -2.083,-0.758 -0.568,-0.567 -0.756,-1.137 -0.756,-1.893 h -0.758 c -0.758,0 -1.516,-0.189 -1.894,-0.758 -0.569,-0.569 -0.757,-1.136 -0.757,-1.893 0,-0.757 0.188,-1.516 0.757,-2.082 0.378,-0.568 1.135,-0.758 1.894,-0.758 0.189,0 0.567,0 0.758,0.189 0,-0.758 0.188,-1.515 0.756,-2.083 0.569,-0.379 1.136,-0.757 2.083,-0.757 0.757,0 1.325,0.378 1.892,0.757 0.568,0.568 0.758,1.325 0.758,2.083 v 0.756 h 5.868 V -34.34 h -0.756 c -0.758,0 -1.515,-0.19 -2.083,-0.759 -0.567,-0.566 -0.758,-1.136 -0.758,-1.893 0,-0.757 0.191,-1.515 0.758,-2.083 0.568,-0.379 1.138,-0.758 1.894,-0.758 v -0.758 c -10e-4,-1.651 1.374,-2.836 2.841,-2.832 z"
   id="path180" />
    <path
   fill="#ffcc00"
   stroke="#987b37"
   stroke-miterlimit="10"
   stroke-width="2.3175"
   d="m 16.945,-96.251 c 3.029,3.218 4.355,7.385 4.355,12.497 0,6.059 -3.406,11.738 -10.412,17.607 -4.545,3.598 -7.764,7.765 -9.467,12.118 h -2.652 c -1.892,-4.354 -5.112,-8.521 -9.656,-12.118 -7.004,-5.869 -10.413,-11.549 -10.413,-17.607 0,-5.112 1.325,-9.279 4.354,-12.497 h 0.001 l -4.355,-4.354 h 4.734 v -39.949 h 33.323 v 39.949 H 21.3 l -4.354,4.354 z"
   id="path182" />
    <path
   fill="#5c8172"
   stroke="#987b37"
   stroke-miterlimit="10"
   stroke-width="2.3175"
   d="m 16.379,-140.555 h -32.756 c -2.839,-9.656 -9.277,-18.743 -19.122,-26.695 -13.064,-10.604 -19.502,-21.395 -19.502,-32.565 -0.189,-1.895 0,-3.787 0.189,-5.681 0.946,-7.005 3.599,-12.875 7.953,-17.42 l -8.142,-8.141 H 55.002 l -8.141,8.141 c 4.354,4.544 7.006,10.415 7.953,17.42 0.189,1.894 0.379,3.786 0.379,5.681 -0.189,11.171 -6.627,21.962 -19.689,32.565 -9.848,7.952 -16.285,17.039 -19.125,26.695"
   id="path184" />
    <path
   fill="none"
   stroke="#987b37"
   stroke-linecap="round"
   stroke-width="2.3175"
   d="m -5.395,-106.663 c -3.598,4.731 -7.383,4.731 -11.17,0"
   id="path186" />
    <path
   fill="none"
   stroke="#987b37"
   stroke-linecap="round"
   stroke-width="2.3175"
   d="m 5.588,-106.663 c -3.979,4.923 -7.575,4.923 -10.983,0"
   id="path188" />
    <path
   fill="none"
   stroke="#987b37"
   stroke-linecap="round"
   stroke-width="2.3175"
   d="m 16.758,-106.663 c -3.977,4.923 -7.764,4.923 -11.17,0 m -22.532,10.412 h 33.891 m -0.189,-4.354 h -33.323 m 33.323,-32.944 h -33.323 m 0.187,-7.006 h 32.757 m -21.774,39.95 v -32.944 m 10.983,32.944 v -32.944 m -52.447,-89.367 h 93.72 m 6.817,12.307 -70.056,70.054 m -16.66,-24.613 65.89,-65.889 m -44.495,0 -41.464,41.464 m -0.677,-20.936 70.163,69.974 m 16.961,-24.882 -65.621,-65.62 m 39.383,0 44.681,44.685"
   id="path190" />
    <path
   fill="#ffffff"
   stroke="#987b37"
   stroke-miterlimit="10"
   stroke-width="2.3175"
   d="m 46.861,-325.056 v 94 H -46.67 v -94 h 93.531"
   id="path192" />
    <path
   fill="#7a7163"
   stroke="#987b37"
   stroke-miterlimit="10"
   stroke-width="2.3175"
   d="m 1.596,-245.823 c -3.03,0 -5.682,-1.136 -7.765,-3.599 -2.083,-2.272 -3.218,-5.113 -3.218,-8.521 v -58.313 h 21.773 v 58.313 c 0,3.408 -0.945,6.249 -3.029,8.521 -2.273,2.462 -4.732,3.599 -7.761,3.599"
   id="path194" />
  </symbol><path
         fill="#8ed1e3"
         d="M -22.908565,1.3475627 H 577.09143 V 601.34756 H -22.908565 Z"
         id="path197" /><g
         stroke="#987b37"
         stroke-width="2.3175"
         id="g213">
    <path
   fill="#ffffff"
   stroke-miterlimit="10"
   d="M 149.764,511.582 V 379.806 h -7.006 V 272 H 43.925 v 107.806 h -5.112 v 131.776 h -6.058 v 80.089 H 153.55 v -80.089 z"
   id="path199" />
    <path
   fill="#7a7163"
   stroke-miterlimit="10"
   d="M 142.758,371.287 H 43.925 l -10.034,8.519 H 152.224 Z M 36.92,506.281 25.37,517.075 H 160.745 L 149.764,506.281 Z M 94.772,291.386 c -6.332,0 -11.465,4.03 -11.465,9 v 48.377 h 22.93 v -48.377 c 0,-4.97 -5.133,-9 -11.465,-9 z"
   id="path201" />
    <circle
   cx="94.003998"
   cy="443.328"
   r="17.323999"
   fill="#7a7163"
   stroke-miterlimit="10"
   id="circle203" />
    <circle
   cx="93.436996"
   cy="79.092003"
   r="6.342"
   fill="#ffcc00"
   stroke-miterlimit="10"
   id="circle205" />
    <path
   fill="#ffcc00"
   d="m 95.713,73.171 c 0.402,-0.501 0.958,-1.233 0.847,-2.927 0.758,0 1.326,-0.19 1.894,-0.759 0.568,-0.567 0.946,-1.324 0.946,-2.081 0,-0.947 -0.378,-1.516 -0.946,-2.083 -0.568,-0.568 -1.325,-0.946 -2.083,-0.756 -0.379,-0.19 -0.757,0 -0.946,0 v -14.58 h 6.437 c -0.189,0.189 -0.189,0.566 -0.189,0.757 0,0.756 0.189,1.515 0.948,2.271 0.377,0.379 1.135,0.567 1.892,0.758 0.947,-0.19 1.514,-0.379 2.082,-0.758 0.569,-0.757 0.946,-1.324 0.946,-2.271 0.19,0.188 0.569,0.188 0.759,0.188 0.756,0 1.514,-0.379 2.082,-0.756 0.567,-0.758 0.757,-1.327 0.946,-2.083 -0.189,-0.758 -0.379,-1.516 -0.946,-2.083 -0.568,-0.567 -1.326,-0.945 -2.082,-0.945 -0.19,0 -0.569,0 -0.759,0.188 0,-0.756 -0.377,-1.514 -0.946,-2.082 -0.568,-0.568 -1.135,-0.757 -2.082,-0.757 -0.757,0 -1.515,0.188 -1.892,0.757 -0.759,0.568 -0.948,1.326 -0.948,2.272 0,0.188 0,0.567 0.189,0.946 h -6.437 v -7.573 c 0.189,0.188 0.567,0.188 0.946,0.188 0.758,0 1.515,-0.188 2.083,-0.757 0.568,-0.569 0.946,-1.325 0.946,-2.081 0,-0.946 -0.378,-1.515 -0.946,-2.083 -0.568,-0.569 -1.136,-0.946 -1.894,-0.946 v -0.758 c 0,-0.757 -0.189,-1.515 -0.756,-2.083 -0.758,-0.568 -1.326,-0.756 -2.083,-0.756 -0.947,0 -1.514,0.188 -2.083,0.756 -0.568,0.568 -0.946,1.326 -0.946,2.083 0,0.379 0,0.568 0.19,0.758 -0.758,0 -1.517,0.377 -2.083,0.946 -0.568,0.568 -0.758,1.137 -0.758,2.083 0,0.756 0.19,1.514 0.758,2.082 0.567,0.568 1.325,0.757 2.083,0.757 h 0.946 v 7.385 H 85.39 c 0.19,-0.379 0.19,-0.758 0.19,-0.946 0,-0.946 -0.19,-1.705 -0.759,-2.272 -0.568,-0.568 -1.324,-0.757 -2.081,-0.757 -0.947,0 -1.515,0.188 -2.083,0.757 -0.568,0.568 -0.947,1.326 -0.947,2.082 -0.189,-0.188 -0.378,-0.188 -0.757,-0.188 -0.757,0 -1.515,0.378 -2.082,0.945 -0.569,0.568 -0.757,1.325 -0.757,2.083 0,0.756 0.188,1.325 0.757,2.083 0.567,0.377 1.325,0.756 2.082,0.756 0.379,0 0.568,0 0.757,-0.188 0,0.947 0.379,1.515 0.947,2.271 0.568,0.379 1.136,0.567 2.083,0.758 0.757,-0.19 1.513,-0.379 2.081,-0.758 0.569,-0.757 0.759,-1.517 0.759,-2.271 v -0.757 h 6.248 v 14.579 c -0.379,0 -0.567,-0.19 -0.946,0 -0.758,-0.19 -1.517,0.188 -2.083,0.756 -0.568,0.567 -0.758,1.136 -0.758,2.083 0,0.757 0.19,1.514 0.758,2.081 0.567,0.568 1.325,0.759 2.083,0.759 -0.554,1.163 0.138,2.294 0.567,2.839 1.254,1.589 3.547,0.982 4.264,0.088 z"
   id="path207" />
    <path
   fill="#ffcc00"
   stroke-miterlimit="10"
   d="m 142.758,263.553 c 4.543,-4.922 7.384,-11.171 8.331,-18.556 0.189,-1.892 0.189,-3.976 0.189,-6.058 0,-11.738 -6.816,-23.099 -20.638,-34.271 -10.412,-8.52 -17.04,-17.797 -20.07,-28.21 h 0.379 v -42.222 h 4.924 l -4.734,-4.543 c 3.218,-3.219 4.734,-7.765 4.734,-13.064 0,-6.248 -3.787,-12.495 -10.982,-18.366 -4.922,-3.977 -8.266,-8.279 -10.182,-12.958 -0.897,0.209 -2.084,0.128 -2.881,-0.105 -1.895,4.731 -5.301,9.086 -10.035,13.063 -7.385,5.871 -10.982,12.118 -10.982,18.366 -0.189,5.3 1.516,9.846 4.544,13.064 l -4.544,4.543 h 4.923 v 42.222 h 0.189 c -3.029,10.413 -9.656,19.691 -20.07,28.21 -13.82,11.172 -20.637,22.532 -20.637,34.271 0,2.083 0,4.167 0.379,6.058 0.946,7.385 3.598,13.634 8.33,18.556 l -8.519,8.521 h 115.872 z"
   id="path209" />
    <path
   fill="none"
   stroke-linecap="round"
   d="m 87.473,140.865 c -3.787,-4.924 -7.574,-4.924 -11.739,0 m 23.476,0 c -4.164,-5.3 -8.141,-5.3 -11.737,0 m 23.476,0 c -4.354,-5.3 -8.141,-5.3 -11.739,0 M 75.355,129.694 h 35.784 m -35.405,4.543 h 35.215 m 0,34.839 H 75.734 m 0.189,7.383 H 110.57 M 87.473,134.237 v 34.839 M 99.21,134.237 v 34.839 m -62.668,81.413 74.028,-74.03 m 17.799,26.318 -69.296,69.296 m 41.842,0 46.956,-47.144 m 2.083,25.56 -74.031,-74.03 m -17.609,25.94 69.487,69.674 m -46.765,0 -43.927,-43.735 m 105.649,35.216 H 43.925"
   id="path211" />
  </g><use
         xlink:href="#a"
         width="115.598"
         height="326.215"
         x="-57.799"
         y="-326.21399"
         overflow="visible"
         transform="matrix(1,0,0,-1,302.4609,199.6797)"
         id="use215" /><use
         xlink:href="#a"
         width="115.598"
         height="326.215"
         x="-57.799"
         y="-326.21399"
         overflow="visible"
         transform="matrix(1,0,0,-1,434.4609,199.6797)"
         id="use217" /><use
         xlink:href="#b"
         width="118.642"
         height="343.358"
         x="-59.320999"
         y="-343.358"
         overflow="visible"
         transform="matrix(1,0,0,-1,235.3047,176.0107)"
         id="use219" /><use
         xlink:href="#b"
         width="118.642"
         height="343.358"
         x="-59.320999"
         y="-343.358"
         overflow="visible"
         transform="matrix(1,0,0,-1,511.0547,176.0107)"
         id="use221" /><g
         stroke="#987b37"
         stroke-width="2.3175"
         id="g239">
    <circle
   cx="371.948"
   cy="155.16"
   r="6.3429999"
   fill="#ffcc00"
   stroke-linecap="round"
   id="circle223" />
    <path
   fill="#ffcc00"
   stroke-linecap="round"
   d="m 370.148,106.217 c -0.568,0.757 -0.947,1.324 -0.947,2.083 0,0.379 0.191,0.569 0.191,0.946 -0.758,0 -1.516,0.189 -2.084,0.758 -0.566,0.757 -0.758,1.325 -0.758,2.083 0,0.757 0.191,1.514 0.758,2.082 0.568,0.568 1.326,0.757 2.084,0.757 h 0.945 v 7.384 H 363.9 c 0.189,-0.379 0.189,-0.757 0.189,-1.135 0,-0.757 -0.189,-1.326 -0.758,-1.894 -0.568,-0.756 -1.324,-0.946 -2.082,-0.946 -0.758,0 -1.518,0.19 -2.084,0.946 -0.566,0.379 -0.758,1.137 -0.758,1.894 h -0.945 c -0.758,0 -1.514,0.189 -2.082,0.756 -0.568,0.568 -0.758,1.328 -0.758,2.083 0,0.759 0.189,1.515 0.758,2.083 0.569,0.568 1.324,0.759 2.082,0.759 h 0.945 c 0,0.756 0.191,1.323 0.758,1.893 0.568,0.567 1.326,0.946 2.084,0.946 0.758,0 1.514,-0.379 2.082,-0.946 0.568,-0.569 0.758,-1.137 0.758,-1.893 v -0.947 h 6.248 v 14.577 h -0.945 c -0.758,0 -1.516,0.189 -2.084,0.759 -0.566,0.568 -0.758,1.324 -0.758,2.081 0,0.758 0.191,1.517 0.758,2.083 0.568,0.567 1.326,0.947 2.084,0.947 0,0.189 -0.191,0.378 -0.191,0.757 0,0.758 0.379,1.514 0.947,2.082 0.568,0.568 1.324,0.757 2.082,0.757 0.758,0 1.514,-0.188 2.084,-0.757 0.566,-0.568 0.756,-1.324 0.756,-2.082 v -0.757 c 0.758,0 1.324,-0.38 1.895,-0.947 0.566,-0.567 0.945,-1.325 0.945,-2.083 0,-0.757 -0.379,-1.513 -0.945,-2.081 -0.57,-0.569 -1.137,-0.759 -2.084,-0.759 -0.377,0 -0.758,0 -0.945,0.189 v -14.768 h 6.436 c -0.188,0.188 -0.188,0.567 -0.188,0.947 0,0.756 0.379,1.323 0.945,1.893 0.568,0.567 1.137,0.946 1.893,0.946 0.949,0 1.516,-0.379 2.084,-0.946 0.568,-0.569 0.945,-1.137 0.945,-1.893 h 0.758 c 0.758,0 1.516,-0.19 2.084,-0.759 0.568,-0.569 0.945,-1.324 0.945,-2.083 0,-0.756 -0.377,-1.515 -0.945,-2.083 -0.568,-0.566 -1.326,-0.756 -2.084,-0.756 h -0.758 c 0,-0.757 -0.375,-1.515 -0.945,-1.894 -0.568,-0.756 -1.135,-0.946 -2.084,-0.946 -0.756,0 -1.324,0.19 -1.893,0.946 -0.566,0.567 -0.945,1.137 -0.945,1.894 0,0.378 0,0.756 0.188,1.135 h -6.436 v -7.572 c 0.188,0.188 0.568,0.188 0.945,0.188 0.947,0 1.514,-0.188 2.084,-0.757 0.566,-0.568 0.945,-1.325 0.945,-2.082 0,-0.758 -0.379,-1.326 -0.945,-2.083 -0.57,-0.568 -1.137,-0.758 -1.895,-0.758 v -0.946 c 0,-0.758 -0.189,-1.325 -0.756,-2.083 -0.57,-0.378 -1.326,-0.757 -2.084,-0.757 -0.758,0 -1.513,0.381 -2.082,0.759"
   id="path225" />
    <path
   fill="#ffcc00"
   stroke-miterlimit="10"
   d="m 421.271,339.667 c 5.682,-6.25 8.711,-14.39 8.711,-24.615 -0.191,-11.739 -7.006,-23.099 -20.828,-34.269 -10.307,-8.548 -17.004,-17.937 -20.079,-28.21 h 0.388 v -42.222 h 4.732 l -4.545,-4.545 c 3.029,-3.407 4.732,-7.764 4.543,-13.255 0,-6.248 -3.596,-12.306 -10.98,-18.362 -4.711,-3.84 -8.136,-8.162 -9.979,-12.818 -0.953,0.207 -2.031,0.132 -2.953,-0.09 -1.961,4.69 -5.237,9.042 -9.979,12.908 -7.383,6.057 -11.17,12.115 -11.17,18.362 0,5.491 1.516,9.848 4.732,13.255 l -4.543,4.545 h 4.922 v 42.222 h 0.243 c -3.033,10.273 -9.689,19.662 -20.122,28.21 -13.82,11.17 -20.637,22.529 -20.637,34.269 -0.189,10.226 2.84,18.365 8.709,24.615 h -0.002 l -8.52,8.521 h 115.873 l -8.52,-8.521 z"
   id="path227" />
    <path
   fill="none"
   stroke-linecap="round"
   d="m 353.865,205.807 h 35.785 m -35.406,4.545 h 35.219 m -23.481,6.627 c -3.785,-5.112 -7.76,-5.112 -11.738,0 m 23.481,0 c -4.168,-5.303 -8.143,-5.303 -11.742,0"
   id="path229" />
    <path
   fill="none"
   stroke-linecap="round"
   d="m 389.463,216.979 c -4.357,-5.303 -8.143,-5.303 -11.74,0 m -11.741,28.21 v -34.837 m 11.741,0 0.002,34.837 m 11.738,0 h -35.219 m 0.243,7.384 h 34.588 m -39.753,95.615 2.084,-8.521 c -7.195,-19.123 -4.924,-37.868 6.814,-56.233 5.111,-10.224 7.574,-20.637 7.76,-30.86 m 28.403,95.614 -2.271,-8.521 c 7.197,-19.123 4.924,-37.867 -6.627,-56.233 -5.111,-10.224 -7.76,-20.637 -7.76,-30.86 m 43.545,87.093 h -98.834"
   id="path231" />
    <path
   fill="#ffffff"
   stroke-linecap="round"
   d="m 421.27,478.188 v -130 h -98.834 v 130 h 98.834"
   id="path233" />
    <path
   fill="none"
   stroke-linecap="round"
   d="M 421.27,447.398 H 322.436"
   id="path235" />
    <path
   fill="#7a7163"
   stroke-linecap="round"
   d="m 336.449,365.036 c -1.707,0 -3.221,0.567 -4.357,1.894 -1.322,1.137 -1.893,2.653 -1.893,4.357 v 66.644 h 12.496 v -66.644 c 0,-1.704 -0.568,-3.221 -1.895,-4.357 -1.134,-1.326 -2.648,-1.894 -4.351,-1.894 z m 48.28,11.361 c 0,-3.6 -1.137,-6.628 -3.408,-9.088 -2.082,-2.462 -4.924,-3.599 -8.143,-3.599 -3.217,0 -5.867,1.136 -8.143,3.599 -2.27,2.46 -3.404,5.488 -3.404,9.088 v 61.533 h 23.098 z m 18.933,-9.467 c -1.324,1.137 -1.893,2.653 -1.893,4.357 v 66.644 h 12.494 v -66.644 c 0,-1.704 -0.566,-3.221 -1.895,-4.357 -1.135,-1.326 -2.648,-1.894 -4.354,-1.894 -1.701,0 -3.217,0.568 -4.352,1.894 z"
   id="path237" />
  </g><g
         stroke="#987b37"
         id="g249">
    <path
   fill="#5c8172"
   stroke-miterlimit="10"
   stroke-width="2.318"
   d="m 582.586,534.112 -21.398,-15.904 -99.61,0.002 0.02,-53.014 H 284.571 l -0.001,53.012 H 182.898 l -16.852,15.904 z"
   id="path241" />
    <path
   fill="none"
   stroke-linecap="round"
   stroke-width="2.3175"
   d="m 290.505,518.21 -5.934,-5.977 v -23.56 l 23.478,-23.477 53.078,53.014"
   id="path243" />
    <path
   fill="none"
   stroke-linecap="round"
   stroke-width="2.3175"
   d="M 431.747,518.21 378.67,465.196 325.655,518.21"
   id="path245" />
    <path
   fill="none"
   stroke-linecap="round"
   stroke-width="2.3175"
   d="m 461.598,477.815 -12.686,-12.619 -53.011,53.012 m 65.677,0.002 -177.008,-0.002"
   id="path247" />
  </g><g
         stroke="#987b37"
         stroke-linecap="round"
         stroke-width="2.3175"
         id="g255">
    <path
   fill="#ffffff"
   d="m 183.654,534.112 h 379.428 v 57.179 H 183.654 Z"
   id="path251" />
    <path
   fill="none"
   d="m 284.571,591.291 -0.001,-73.083 m 177.008,73.083 v -73.083 m 0,45.063 c -57.748,-15.525 -119.262,-15.525 -177.007,0"
   id="path253" />
  </g></g><path
       style="display:inline;fill:#ffcc00;stroke:url(#linearGradient2434);stroke-width:0.104708"
       d="m 131.60986,37.40149 c -0.57504,-0.208201 -0.59219,-0.310966 -0.59219,-3.54844 v -3.007548 l 0.27134,-0.243453 c 0.32738,-0.293747 0.78237,-0.31273 1.1657,-0.04859 l 0.27635,0.1904 0.0322,3.08402 0.0322,3.084018 -0.32766,0.293996 c -0.34339,0.308124 -0.46851,0.336649 -0.85791,0.195657 z m -13.91242,-5.177726 c -0.31342,-0.159467 -0.38328,-0.280938 -0.38521,-0.66979 -0.001,-0.313679 0.19709,-0.521034 2.39927,-2.504402 2.16702,-1.95172 2.43677,-2.162402 2.76855,-2.162402 0.48048,0 0.91027,0.374073 0.91027,0.792269 0,0.329042 -0.024,0.352521 -3.38242,3.299062 -1.60181,1.405387 -1.79311,1.508487 -2.31046,1.245263 z m 25.12793,-2.039339 c -2.09089,-1.870828 -2.41167,-2.198165 -2.41167,-2.460892 0,-0.51206 0.71175,-0.988388 1.1489,-0.76888 0.0935,0.04699 1.24121,1.037502 2.55046,2.2012 2.02662,1.801358 2.38042,2.159193 2.38042,2.407677 0,0.399491 -0.43808,0.778757 -0.89954,0.778757 -0.31731,0 -0.62428,-0.239264 -2.76857,-2.157862 z m -12.24316,-2.307817 c -3.15615,-0.394076 -5.93933,-2.204671 -7.35474,-4.784568 -0.75288,-1.372323 -0.96895,-2.229024 -0.96895,-3.842028 0,-1.609237 0.21719,-2.474213 0.95879,-3.818578 3.18594,-5.7754644 12.01305,-6.5792744 16.33772,-1.487752 0.7835,0.922435 1.43294,2.101687 1.75975,3.195333 0.32737,1.095514 0.32619,3.125049 -0.003,4.243457 -0.51651,1.757616 -1.8003,3.547171 -3.32824,4.639446 -0.97,0.693398 -2.53304,1.397317 -3.67492,1.654982 -1.02062,0.230304 -2.74282,0.322594 -3.72695,0.199708 z m 3.01136,-1.641675 c 2.70165,-0.530809 5.00145,-2.420883 5.90433,-4.852461 0.26084,-0.702488 0.29466,-0.947005 0.29488,-2.13246 2.2e-4,-1.172817 -0.0349,-1.433341 -0.28272,-2.099381 -0.44571,-1.197696 -1.01905,-2.026207 -2.0189,-2.91749 -1.00152,-0.892771 -1.94702,-1.419306 -3.24935,-1.809472 -0.74209,-0.222339 -1.03309,-0.253915 -2.3398,-0.253915 -1.30672,0 -1.5977,0.03152 -2.33979,0.253915 -1.32215,0.396105 -2.25764,0.916408 -3.25227,1.808844 -1.50461,1.350013 -2.23037,2.81614 -2.33727,4.721474 -0.0719,1.281203 0.17724,2.301062 0.87107,3.566314 0.37015,0.674971 0.65851,1.018955 1.4658,1.748554 0.86394,0.780785 1.15238,0.971825 2.05513,1.361176 1.69825,0.732414 3.51198,0.942234 5.22889,0.604902 z m -21.65655,-6.423704 c -0.41523,-0.320478 -0.413,-0.803663 0.005,-1.126432 l 0.30615,-0.236288 3.4253,0.0289 3.42531,0.02875 0.21119,0.234143 c 0.29407,0.326036 0.26921,0.764253 -0.0601,1.059751 l -0.27137,0.243447 h -3.37037 -3.37038 z m 32.61696,-0.01166 c -0.43571,-0.390954 -0.35202,-0.952112 0.17874,-1.198382 0.25374,-0.117748 0.92783,-0.145038 3.57303,-0.145038 3.25953,0 3.26037,5.9e-5 3.56124,0.232261 0.21504,0.165959 0.30094,0.32617 0.30094,0.561203 0,0.235048 -0.086,0.395259 -0.30094,0.561217 l -0.30094,0.23225 h -3.37037 -3.37038 z m -22.32435,-8.230706 c -0.41591,-0.167186 -4.75657,-4.0926144 -4.85807,-4.3933662 -0.1037,-0.307261 0.15443,-0.741375 0.5391,-0.906823 0.28223,-0.121398 0.36357,-0.118043 0.66225,0.02728 0.18727,0.09105 1.34779,1.072155 2.57895,2.1801738 2.16358,1.9471974 2.23846,2.0278424 2.23846,2.4112824 0,0.615846 -0.53807,0.931773 -1.16069,0.681491 z m 18.45539,-0.199928 C 140.51406,11.21554 140.4137,11.01214 140.4137,10.8191 c 0,-0.26604 0.30977,-0.586927 2.35284,-2.4372834 2.01433,-1.8243258 2.41077,-2.1393328 2.75542,-2.1895108 0.33478,-0.04874 0.45046,-0.01561 0.68704,0.196629 0.18817,0.168833 0.28448,0.363683 0.28448,0.575604 0,0.284906 -0.26616,0.5597868 -2.40513,2.4840918 -2.15925,1.9425714 -2.44227,2.1637574 -2.76855,2.1637574 -0.23848,0 -0.45673,-0.08375 -0.63478,-0.243452 z m -9.39601,-3.4714414 -0.27134,-0.243453 v -3.0240778 -3.02408 l 0.25887,-0.270023 c 0.35518,-0.37051203 0.89575,-0.37051203 1.25094,0 l 0.25885,0.270023 v 3.02408 3.0240778 l -0.27131,0.243934 c -0.17104,0.153469 -0.39764,0.243453 -0.61301,0.243453 -0.21538,0 -0.44196,-0.09003 -0.613,-0.243453 z"
       id="path504"
       inkscape:label="path504" /><path
       style="fill:#ffffff;stroke-width:0.0341285"
       d="m 53.850132,28.904784 c 0,-0.0186 -0.066,-0.0338 -0.14663,-0.0339 -0.26584,-3.3e-4 -1.05711,-0.13032 -1.52357,-0.2504 -2.76229,-0.71104 -5.00401,-2.78485 -5.80515,-5.37034 -0.114308,-0.3689 -0.200942,-0.74035 -0.275582,-1.18157 -0.08747,-0.51703 -0.08832,-1.8305 -0.0015,-2.36313 0.177958,-1.09228 0.557872,-2.12891 1.116822,-3.04733 0.85482,-1.40461 2.33684,-2.62112 3.97833,-3.26561 1.28089,-0.50291 2.78053,-0.69455 4.06606,-0.5196 0.13982,0.019 0.25839,0.0298 0.26348,0.0239 0.005,-0.006 0.027,-0.27656 0.0487,-0.60149 0.0493,-0.73854 0.10933,-1.1344 0.2659,-1.75235 0.94215,-3.7183602 4.03307,-6.5352602 7.87732,-7.1789502 1.34177,-0.22467 2.6816,-0.1826 3.98842,0.12523 1.38673,0.32667 2.69449,0.94437 3.83553,1.81168 0.41764,0.31744 1.089,0.95352 1.4497,1.37349 0.32691,0.38065 0.89978,1.20011 1.08094,1.54626 0.13581,0.25949 0.0896,0.24999 0.55676,0.11432 2.44262,-0.70932 5.24464,-0.21465 7.283335,1.2858001 0.64228,0.4727101 1.37445,1.2206201 1.82504,1.8643001 0.855,1.22136 1.34398,2.63135 1.43129,4.12719 l 0.0232,0.39653 h 0.283 c 1.4249,0 2.68217,0.34617 3.75492,1.03386 0.80074,0.51332 1.4962,1.20184 2.0034,1.98343 0.34933,0.5383 0.68016,1.30427 0.83292,1.92842 0.93991,3.84049 -1.76329,7.56104 -5.77573,7.94945 -0.48993,0.0474 -32.436775,0.0482 -32.436775,8.1e-4 z"
       id="path2247" /></g></svg>
