<?xml version="1.0" encoding="utf-8"?>
<svg xmlns="http://www.w3.org/2000/svg" xmlns:xlink="http://www.w3.org/1999/xlink" xml:space="preserve" width="600" height="600">
  <symbol id="b" viewBox="-59.321 -343.358 118.642 343.358">
    <path fill="#FC0" stroke="#987B37" stroke-miterlimit="10" stroke-width="2.3175" d="M6.478-50.716c0-3.503-2.84-6.343-6.344-6.343-3.503 0-6.343 2.84-6.343 6.343 0 3.504 2.84 6.344 6.343 6.344 3.504 0 6.344-2.84 6.344-6.344z"/>
    <path fill="#FC0" stroke="#987B37" stroke-linecap="round" stroke-width="2.3175" d="M2.5-44.753c.531.461 1.086 2.123.568 2.839.946 0 1.516.189 2.083.757.568.569.947 1.326.947 2.083 0 .947-.379 1.514-.947 2.083-.567.568-1.325.946-2.083.946-.378 0-.757-.19-1.137-.19v14.77h6.628c-.189-.38-.189-.758-.189-.947 0-.756.188-1.517.946-2.083.376-.567 1.135-.756 2.081-.946.758.19 1.326.379 1.893.946.569.567.948 1.328.948 2.083.189-.189.379-.189.758-.189.756 0 1.513.189 2.081.947.569.567.758 1.135.946 1.892-.188.947-.377 1.515-.946 2.083-.568.568-1.325.947-2.081.947-.379 0-.569-.189-.758-.189 0 .757-.379 1.515-.948 2.082-.567.567-1.135.758-1.893.758-.946 0-1.705-.19-2.081-.758-.758-.567-.946-1.325-.946-2.082 0-.38 0-.758.188-1.137H1.93v7.574c.38-.188.759-.188 1.137-.188.757 0 1.516.188 2.083.758.568.566.947 1.322.947 2.081 0 .945-.379 1.515-.947 2.083-.567.567-1.136.944-2.083.944.19.19.19.379.19.759 0 .758-.379 1.515-.758 2.083-.756.567-1.325.945-2.082.756-.947.189-1.515-.189-2.084-.756-.567-.568-.946-1.325-.946-2.083 0-.38 0-.568.19-.759-.946 0-1.514-.377-2.083-.945-.567-.568-.757-1.139-.757-2.083 0-.759.19-1.515.757-2.081.569-.569 1.325-.758 2.083-.758h.946v-7.386h-6.438c.19.379.19.757.19 1.137 0 .757-.19 1.515-.757 2.082-.568.567-1.326.758-2.083.758-.947 0-1.514-.19-2.083-.758-.569-.567-.757-1.325-.757-2.082-.379 0-.569.189-.947.189-.757 0-1.515-.379-2.082-.947-.569-.568-.758-1.136-.758-2.083 0-.757.189-1.324.758-1.892.567-.758 1.325-.947 2.082-.947.378 0 .568 0 .947.189 0-.756.188-1.517.757-2.083.568-.567 1.135-.756 2.083-.946.757.19 1.515.379 2.083.946.567.567.757 1.328.757 2.083v.946h6.248v-14.77c-.378 0-.567.19-.946.19-.758 0-1.514-.378-2.083-.946-.567-.569-.757-1.136-.757-2.083 0-.757.19-1.514.757-2.083.569-.567 1.138-.757 2.083-.757-.538-.7.165-2.377.556-2.794C-.692-45.96.93-46.114 2.5-44.753z"/>
    <path fill="#FC0" stroke="#987B37" stroke-miterlimit="10" stroke-width="2.3175" d="m17.647-148.129-.001 42.22.001.001h4.733l-4.544 4.544h-.002c3.029 3.218 4.733 7.574 4.733 13.063 0 6.25-3.787 12.498-11.172 18.557-4.733 3.787-8.096 8.129-10.017 12.809-.73-.193-2.058-.193-2.856.065-1.892-4.733-5.112-9.087-10.035-12.874-7.384-6.06-10.981-12.307-10.981-18.557 0-5.488 1.516-9.845 4.543-13.063h.001l-4.543-4.544h4.922v-42.221h35.218z"/>
    <path fill="#5C8172" stroke="#987B37" stroke-miterlimit="10" stroke-width="2.3175" d="M-17.381-148.129c-3.029-10.226-9.656-19.691-20.07-28.214-13.821-11.169-20.637-22.527-20.637-34.267-.19-2.082 0-4.167.376-6.061.761-7.384 3.6-13.632 8.333-18.555h.001l-8.709-8.518H57.784l-8.518 8.519h-.001c4.73 4.922 7.572 11.17 8.329 18.554.379 1.894.568 3.979.568 6.061-.189 11.739-7.005 23.098-20.826 34.267-10.412 8.522-17.039 17.988-20.259 28.214h-34.458z"/>
    <path fill="none" stroke="#987B37" stroke-linecap="round" stroke-width="2.3175" d="M-17.95-101.364h35.786m-.189-4.544h-35.218m35.218-34.838h-35.218m.19-7.383h34.458m-22.908 42.221v-34.838m11.738 34.838v-34.838m-11.738 28.211c-3.785 4.923-7.573 4.923-11.739 0"/>
    <path fill="none" stroke="#987B37" stroke-linecap="round" stroke-width="2.3175" d="M5.907-112.535c-4.164 5.301-8.142 5.301-11.739 0m23.479 0c-4.356 5.112-8.142 5.112-11.739 0M56.65-222.16l-74.031 74.031m-17.608-25.939 69.676-69.674m-47.145 0-43.736 43.924m-.569-22.342 73.84 74.031m17.987-26.319-69.296-69.294m41.843 0 46.955 47.141m-103.942-38.623h98.642"/>
    <path fill="#FFF" stroke="#987B37" stroke-miterlimit="10" stroke-width="2.3175" d="M49.266-342.199v98.46h-98.642v-98.46z"/>
    <path fill="#7A7163" stroke="#987B37" stroke-miterlimit="10" stroke-width="2.3175" d="M1.363-259.271c-3.218 0-5.87-1.324-8.141-3.786-2.272-2.46-3.408-5.49-3.408-8.898v-61.725h23.099v61.725c0 3.408-1.137 6.438-3.408 8.898-2.083 2.462-4.922 3.786-8.142 3.786z"/>
  </symbol>
  <symbol id="a" viewBox="-57.799 -326.214 115.598 326.215">
    <path fill="#FC0" stroke="#987B37" stroke-miterlimit="10" stroke-width="2.3175" d="M6.154-48.12c0-3.293-2.67-5.963-5.964-5.963s-5.963 2.67-5.963 5.963 2.67 5.963 5.963 5.963 5.964-2.67 5.964-5.963z"/>
    <path fill="#FC0" stroke="#987B37" stroke-linecap="round" stroke-width="2.3175" d="M.475-43.423c1.314.003 2.658 1.266 2.652 2.836-.001.381 0 .567 0 .758.566 0 1.324.379 1.701.758.568.567.947 1.325.947 2.083 0 .757-.379 1.326-.947 1.893-.566.568-1.135.759-1.893.759-.377 0-.568 0-.947-.19v14.01h6.061v-.756c0-.758.189-1.515.758-2.083.568-.379 1.135-.757 1.893-.757s1.516.378 2.082.757c.379.568.756 1.325.756 2.083.191-.189.381-.189.76-.189.756 0 1.324.189 1.891.758.57.566.76 1.325.949 2.082-.189.757-.379 1.323-.949 1.893-.566.568-1.135.758-1.891.758h-.76c0 .756-.377 1.325-.756 1.893-.566.379-1.324.758-2.082.758s-1.324-.379-1.893-.758c-.568-.567-.758-1.137-.758-2.083-.189-.189 0-.568 0-.947H1.988v7.005c.379 0 .57 0 .947-.188.758.188 1.326.379 1.893.946.568.564.947 1.133.947 1.889 0 .758-.379 1.514-.947 1.893-.377.569-1.135.948-1.701.948v.756c0 .758-.191 1.325-.76 1.894-.566.568-1.135.945-1.892.756-.946.189-1.513-.188-2.083-.757-.567-.568-.757-1.136-.757-1.894v-.756c-.756 0-1.325-.379-1.894-.948-.567-.379-.758-1.135-.758-1.893 0-.756.191-1.325.758-1.893.568-.567 1.325-.758 2.083-.946.189.188.567.188.757.188v-7.005h-6.06c.19.379.19.758.19.947 0 .945-.19 1.515-.758 2.083-.567.379-1.135.758-1.892.758-.947 0-1.514-.379-2.083-.758-.568-.567-.756-1.137-.756-1.893h-.758c-.758 0-1.516-.189-1.894-.758-.569-.569-.757-1.136-.757-1.893s.188-1.516.757-2.082c.378-.568 1.135-.758 1.894-.758.189 0 .567 0 .758.189 0-.758.188-1.515.756-2.083.569-.379 1.136-.757 2.083-.757.757 0 1.325.378 1.892.757.568.568.758 1.325.758 2.083v.756h5.868V-34.34h-.756c-.758 0-1.515-.19-2.083-.759-.567-.566-.758-1.136-.758-1.893s.191-1.515.758-2.083c.568-.379 1.138-.758 1.894-.758v-.758c-.001-1.651 1.374-2.836 2.841-2.832z"/>
    <path fill="#FC0" stroke="#987B37" stroke-miterlimit="10" stroke-width="2.3175" d="M16.945-96.251c3.029 3.218 4.355 7.385 4.355 12.497 0 6.059-3.406 11.738-10.412 17.607-4.545 3.598-7.764 7.765-9.467 12.118h-2.652c-1.892-4.354-5.112-8.521-9.656-12.118C-17.891-72.016-21.3-77.696-21.3-83.754c0-5.112 1.325-9.279 4.354-12.497h.001l-4.355-4.354h4.734v-39.949h33.323v39.949H21.3l-4.354 4.354h-.001z"/>
    <path fill="#5C8172" stroke="#987B37" stroke-miterlimit="10" stroke-width="2.3175" d="M16.379-140.555h-32.756c-2.839-9.656-9.277-18.743-19.122-26.695-13.064-10.604-19.502-21.395-19.502-32.565-.189-1.895 0-3.787.189-5.681.946-7.005 3.599-12.875 7.953-17.42l-8.142-8.141H55.002l-8.141 8.141c4.354 4.544 7.006 10.415 7.953 17.42.189 1.894.379 3.786.379 5.681-.189 11.171-6.627 21.962-19.689 32.565-9.848 7.952-16.285 17.039-19.125 26.695"/>
    <path fill="none" stroke="#987B37" stroke-linecap="round" stroke-width="2.3175" d="M-5.395-106.663c-3.598 4.731-7.383 4.731-11.17 0"/>
    <path fill="none" stroke="#987B37" stroke-linecap="round" stroke-width="2.3175" d="M5.588-106.663c-3.979 4.923-7.575 4.923-10.983 0"/>
    <path fill="none" stroke="#987B37" stroke-linecap="round" stroke-width="2.3175" d="M16.758-106.663c-3.977 4.923-7.764 4.923-11.17 0m-22.532 10.412h33.891m-.189-4.354h-33.323m33.323-32.944h-33.323m.187-7.006h32.757m-21.774 39.95v-32.944m10.983 32.944v-32.944m-52.447-89.367h93.72m6.817 12.307-70.056 70.054m-16.66-24.613 65.89-65.889m-44.495 0-41.464 41.464m-.677-20.936 70.163 69.974m16.961-24.882-65.621-65.62m39.383 0 44.681 44.685"/>
    <path fill="#FFF" stroke="#987B37" stroke-miterlimit="10" stroke-width="2.3175" d="M46.861-325.056v94H-46.67v-94h93.531"/>
    <path fill="#7A7163" stroke="#987B37" stroke-miterlimit="10" stroke-width="2.3175" d="M1.596-245.823c-3.03 0-5.682-1.136-7.765-3.599-2.083-2.272-3.218-5.113-3.218-8.521v-58.313h21.773v58.313c0 3.408-.945 6.249-3.029 8.521-2.273 2.462-4.732 3.599-7.761 3.599"/>
  </symbol>
  <path fill="#8ED1E3" d="M0 0h600v600H0z"/>
  <g stroke="#987B37" stroke-width="2.3175">
    <path fill="#FFF" stroke-miterlimit="10" d="M149.764 511.582V379.806h-7.006V272H43.925v107.806h-5.112v131.776h-6.058v80.089H153.55v-80.089z"/>
    <path fill="#7A7163" stroke-miterlimit="10" d="M142.758 371.287H43.925l-10.034 8.519h118.333zM36.92 506.281l-11.55 10.794h135.375l-10.981-10.794zm57.852-214.895c-6.332 0-11.465 4.03-11.465 9v48.377h22.93v-48.377c0-4.97-5.133-9-11.465-9z"/>
    <circle cx="94.004" cy="443.328" r="17.324" fill="#7A7163" stroke-miterlimit="10"/>
    <circle cx="93.437" cy="79.092" r="6.342" fill="#FC0" stroke-miterlimit="10"/>
    <path fill="#FC0" d="M95.713 73.171c.402-.501.958-1.233.847-2.927.758 0 1.326-.19 1.894-.759.568-.567.946-1.324.946-2.081 0-.947-.378-1.516-.946-2.083-.568-.568-1.325-.946-2.083-.756-.379-.19-.757 0-.946 0v-14.58h6.437c-.189.189-.189.566-.189.757 0 .756.189 1.515.948 2.271.377.379 1.135.567 1.892.758.947-.19 1.514-.379 2.082-.758.569-.757.946-1.324.946-2.271.19.188.569.188.759.188.756 0 1.514-.379 2.082-.756.567-.758.757-1.327.946-2.083-.189-.758-.379-1.516-.946-2.083-.568-.567-1.326-.945-2.082-.945-.19 0-.569 0-.759.188 0-.756-.377-1.514-.946-2.082-.568-.568-1.135-.757-2.082-.757-.757 0-1.515.188-1.892.757-.759.568-.948 1.326-.948 2.272 0 .188 0 .567.189.946h-6.437v-7.573c.189.188.567.188.946.188.758 0 1.515-.188 2.083-.757s.946-1.325.946-2.081c0-.946-.378-1.515-.946-2.083-.568-.569-1.136-.946-1.894-.946v-.758c0-.757-.189-1.515-.756-2.083-.758-.568-1.326-.756-2.083-.756-.947 0-1.514.188-2.083.756-.568.568-.946 1.326-.946 2.083 0 .379 0 .568.19.758-.758 0-1.517.377-2.083.946-.568.568-.758 1.137-.758 2.083 0 .756.19 1.514.758 2.082.567.568 1.325.757 2.083.757h.946v7.385H85.39c.19-.379.19-.758.19-.946 0-.946-.19-1.705-.759-2.272-.568-.568-1.324-.757-2.081-.757-.947 0-1.515.188-2.083.757-.568.568-.947 1.326-.947 2.082-.189-.188-.378-.188-.757-.188-.757 0-1.515.378-2.082.945-.569.568-.757 1.325-.757 2.083 0 .756.188 1.325.757 2.083.567.377 1.325.756 2.082.756.379 0 .568 0 .757-.188 0 .947.379 1.515.947 2.271.568.379 1.136.567 2.083.758.757-.19 1.513-.379 2.081-.758.569-.757.759-1.517.759-2.271v-.757h6.248v14.579c-.379 0-.567-.19-.946 0-.758-.19-1.517.188-2.083.756-.568.567-.758 1.136-.758 2.083 0 .757.19 1.514.758 2.081.567.568 1.325.759 2.083.759-.554 1.163.138 2.294.567 2.839 1.254 1.589 3.547.982 4.264.088z"/>
    <path fill="#FC0" stroke-miterlimit="10" d="M142.758 263.553c4.543-4.922 7.384-11.171 8.331-18.556.189-1.892.189-3.976.189-6.058 0-11.738-6.816-23.099-20.638-34.271-10.412-8.52-17.04-17.797-20.07-28.21h.379v-42.222h4.924l-4.734-4.543c3.218-3.219 4.734-7.765 4.734-13.064 0-6.248-3.787-12.495-10.982-18.366-4.922-3.977-8.266-8.279-10.182-12.958-.897.209-2.084.128-2.881-.105-1.895 4.731-5.301 9.086-10.035 13.063-7.385 5.871-10.982 12.118-10.982 18.366-.189 5.3 1.516 9.846 4.544 13.064l-4.544 4.543h4.923v42.222h.189c-3.029 10.413-9.656 19.691-20.07 28.21-13.82 11.172-20.637 22.532-20.637 34.271 0 2.083 0 4.167.379 6.058.946 7.385 3.598 13.634 8.33 18.556l-8.519 8.521h115.872l-8.52-8.521z"/>
    <path fill="none" stroke-linecap="round" d="M87.473 140.865c-3.787-4.924-7.574-4.924-11.739 0m23.476 0c-4.164-5.3-8.141-5.3-11.737 0m23.476 0c-4.354-5.3-8.141-5.3-11.739 0m-23.855-11.171h35.784m-35.405 4.543h35.215m0 34.839H75.734m.189 7.383h34.647m-23.097-42.222v34.839m11.737-34.839v34.839m-62.668 81.413 74.028-74.03m17.799 26.318-69.296 69.296m41.842 0 46.956-47.144m2.083 25.56-74.031-74.03m-17.609 25.94 69.487 69.674m-46.765 0-43.927-43.735m105.649 35.216H43.925"/>
  </g>
  <use xlink:href="#a" width="115.598" height="326.215" x="-57.799" y="-326.214" overflow="visible" transform="matrix(1 0 0 -1 302.4609 199.6797)"/>
  <use xlink:href="#a" width="115.598" height="326.215" x="-57.799" y="-326.214" overflow="visible" transform="matrix(1 0 0 -1 434.4609 199.6797)"/>
  <use xlink:href="#b" width="118.642" height="343.358" x="-59.321" y="-343.358" overflow="visible" transform="matrix(1 0 0 -1 235.3047 176.0107)"/>
  <use xlink:href="#b" width="118.642" height="343.358" x="-59.321" y="-343.358" overflow="visible" transform="matrix(1 0 0 -1 511.0547 176.0107)"/>
  <g stroke="#987B37" stroke-width="2.3175">
    <circle cx="371.948" cy="155.16" r="6.343" fill="#FC0" stroke-linecap="round"/>
    <path fill="#FC0" stroke-linecap="round" d="M370.148 106.217c-.568.757-.947 1.324-.947 2.083 0 .379.191.569.191.946-.758 0-1.516.189-2.084.758-.566.757-.758 1.325-.758 2.083 0 .757.191 1.514.758 2.082.568.568 1.326.757 2.084.757h.945v7.384H363.9c.189-.379.189-.757.189-1.135 0-.757-.189-1.326-.758-1.894-.568-.756-1.324-.946-2.082-.946s-1.518.19-2.084.946c-.566.379-.758 1.137-.758 1.894h-.945c-.758 0-1.514.189-2.082.756-.568.568-.758 1.328-.758 2.083 0 .759.189 1.515.758 2.083s1.324.759 2.082.759h.945c0 .756.191 1.323.758 1.893.568.567 1.326.946 2.084.946s1.514-.379 2.082-.946c.568-.569.758-1.137.758-1.893v-.947h6.248v14.577h-.945c-.758 0-1.516.189-2.084.759-.566.568-.758 1.324-.758 2.081 0 .758.191 1.517.758 2.083.568.567 1.326.947 2.084.947 0 .189-.191.378-.191.757 0 .758.379 1.514.947 2.082s1.324.757 2.082.757 1.514-.188 2.084-.757c.566-.568.756-1.324.756-2.082v-.757c.758 0 1.324-.38 1.895-.947.566-.567.945-1.325.945-2.083 0-.757-.379-1.513-.945-2.081-.57-.569-1.137-.759-2.084-.759-.377 0-.758 0-.945.189v-14.768h6.436c-.188.188-.188.567-.188.947 0 .756.379 1.323.945 1.893.568.567 1.137.946 1.893.946.949 0 1.516-.379 2.084-.946.568-.569.945-1.137.945-1.893h.758c.758 0 1.516-.19 2.084-.759s.945-1.324.945-2.083c0-.756-.377-1.515-.945-2.083-.568-.566-1.326-.756-2.084-.756h-.758c0-.757-.375-1.515-.945-1.894-.568-.756-1.135-.946-2.084-.946-.756 0-1.324.19-1.893.946-.566.567-.945 1.137-.945 1.894 0 .378 0 .756.188 1.135h-6.436v-7.572c.188.188.568.188.945.188.947 0 1.514-.188 2.084-.757.566-.568.945-1.325.945-2.082 0-.758-.379-1.326-.945-2.083-.57-.568-1.137-.758-1.895-.758v-.946c0-.758-.189-1.325-.756-2.083-.57-.378-1.326-.757-2.084-.757s-1.513.381-2.082.759"/>
    <path fill="#FC0" stroke-miterlimit="10" d="M421.271 339.667c5.682-6.25 8.711-14.39 8.711-24.615-.191-11.739-7.006-23.099-20.828-34.269-10.307-8.548-17.004-17.937-20.079-28.21h.388v-42.222h4.732l-4.545-4.545c3.029-3.407 4.732-7.764 4.543-13.255 0-6.248-3.596-12.306-10.98-18.362-4.711-3.84-8.136-8.162-9.979-12.818-.953.207-2.031.132-2.953-.09-1.961 4.69-5.237 9.042-9.979 12.908-7.383 6.057-11.17 12.115-11.17 18.362 0 5.491 1.516 9.848 4.732 13.255l-4.543 4.545h4.922v42.222h.243c-3.033 10.273-9.689 19.662-20.122 28.21-13.82 11.17-20.637 22.529-20.637 34.269-.189 10.226 2.84 18.365 8.709 24.615h-.002l-8.52 8.521h115.873l-8.52-8.521h.004z"/>
    <path fill="none" stroke-linecap="round" d="M353.865 205.807h35.785m-35.406 4.545h35.219m-23.481 6.627c-3.785-5.112-7.76-5.112-11.738 0m23.481 0c-4.168-5.303-8.143-5.303-11.742 0"/>
    <path fill="none" stroke-linecap="round" d="M389.463 216.979c-4.357-5.303-8.143-5.303-11.74 0m-11.741 28.21v-34.837m11.741 0 .002 34.837m11.738 0h-35.219m.243 7.384h34.588m-39.753 95.615 2.084-8.521c-7.195-19.123-4.924-37.868 6.814-56.233 5.111-10.224 7.574-20.637 7.76-30.86m28.403 95.614-2.271-8.521c7.197-19.123 4.924-37.867-6.627-56.233-5.111-10.224-7.76-20.637-7.76-30.86m43.545 87.093h-98.834"/>
    <path fill="#FFF" stroke-linecap="round" d="M421.27 478.188v-130h-98.834v130h98.834"/>
    <path fill="none" stroke-linecap="round" d="M421.27 447.398h-98.834"/>
    <path fill="#7A7163" stroke-linecap="round" d="M336.449 365.036c-1.707 0-3.221.567-4.357 1.894-1.322 1.137-1.893 2.653-1.893 4.357v66.644h12.496v-66.644c0-1.704-.568-3.221-1.895-4.357-1.134-1.326-2.648-1.894-4.351-1.894zm48.28 11.361c0-3.6-1.137-6.628-3.408-9.088-2.082-2.462-4.924-3.599-8.143-3.599-3.217 0-5.867 1.136-8.143 3.599-2.27 2.46-3.404 5.488-3.404 9.088v61.533h23.098v-61.533zm18.933-9.467c-1.324 1.137-1.893 2.653-1.893 4.357v66.644h12.494v-66.644c0-1.704-.566-3.221-1.895-4.357-1.135-1.326-2.648-1.894-4.354-1.894-1.701 0-3.217.568-4.352 1.894z"/>
  </g>
  <g stroke="#987B37">
    <path fill="#5C8172" stroke-miterlimit="10" stroke-width="2.318" d="m582.586 534.112-21.398-15.904-99.61.002.02-53.014H284.571l-.001 53.012H182.898l-16.852 15.904z"/>
    <path fill="none" stroke-linecap="round" stroke-width="2.3175" d="m290.505 518.21-5.934-5.977v-23.56l23.478-23.477 53.078 53.014"/>
    <path fill="none" stroke-linecap="round" stroke-width="2.3175" d="m431.747 518.21-53.077-53.014-53.015 53.014"/>
    <path fill="none" stroke-linecap="round" stroke-width="2.3175" d="m461.598 477.815-12.686-12.619-53.011 53.012m65.677.002-177.008-.002"/>
  </g>
  <g stroke="#987B37" stroke-linecap="round" stroke-width="2.3175">
    <path fill="#FFF" d="M183.654 534.112h379.428v57.179H183.654z"/>
    <path fill="none" d="m284.571 591.291-.001-73.083m177.008 73.083v-73.083m0 45.063c-57.748-15.525-119.262-15.525-177.007 0"/>
  </g>
</svg>