<svg xmlns="http://www.w3.org/2000/svg" version="1.1" xmlns:xlink="http://www.w3.org/1999/xlink" xmlns:svgjs="http://svgjs.dev/svgjs" width="1000" height="1000" viewBox="0 0 1000 1000"><rect width="1000" height="1000" fill="#ffffff"></rect><g transform="matrix(0.7,0,0,0.7,149.57575757889543,438.0415091883841)"><svg viewBox="0 0 396 70" data-background-color="#61777f" preserveAspectRatio="xMidYMid meet" height="176" width="1000" xmlns="http://www.w3.org/2000/svg" xmlns:xlink="http://www.w3.org/1999/xlink"><g id="tight-bounds" transform="matrix(1,0,0,1,0.24000000177522907,0.20368796114539123)"><svg viewBox="0 0 395.52 69.59262407770922" height="69.59262407770922" width="395.52"><g><svg viewBox="0 0 489.603883603972 86.14689274534214" height="69.59262407770922" width="395.52"><g transform="matrix(1,0,0,1,0,11.905974322981443)"><svg viewBox="0 0 395.52 62.33494409937926" height="62.33494409937926" width="395.52"><g id="textblocktransform"><svg viewBox="0 0 395.52 62.33494409937926" height="62.33494409937926" width="395.52" id="textblock"><g><svg viewBox="0 0 395.52 33.62049026004288" height="33.62049026004288" width="395.52"><g transform="matrix(1,0,0,1,0,0)"><svg width="395.52" viewBox="0.15000000596046448 -38.099998474121094 536.4099731445312 45.599998474121094" height="33.62049026004288" data-palette-color="#ffffff"><path d="M13.5-36.3L13.5-6.8Q13.5-2.35 11.78 0.83 10.05 4 7.05 5.68 4.05 7.35 0.15 7.5L0.15 7.5 0.15 7.5 0.15 2.3Q3.65 2.1 5.9-0.1 8.15-2.3 8.15-6.95L8.15-6.95 8.15-36.3 13.5-36.3ZM28.5-36.3L28.5-12.95Q28.5-10.65 29.65-8.8 30.8-6.95 32.7-5.85 34.6-4.75 36.95-4.75L36.95-4.75Q39.45-4.75 41.4-5.85 43.35-6.95 44.47-8.8 45.6-10.65 45.6-12.95L45.6-12.95 45.6-36.3 50.85-36.3 50.85-12.8Q50.85-8.85 49-5.88 47.15-2.9 44-1.25 40.85 0.4 36.95 0.4L36.95 0.4 36.95 0.4Q33.15 0.4 30-1.25 26.85-2.9 25.02-5.88 23.2-8.85 23.2-12.8L23.2-12.8 23.2-36.3 28.5-36.3ZM60.5 0L60.5-36.3 65.85-36.3 65.85-5.15 84-5.15 84 0 60.5 0ZM91.79 0L91.79-36.3 97.14-36.3 97.14 0 91.79 0ZM108.89 0L103.64 0 119.59-37.75 119.89-37.75 135.84 0 129.74 0 118.14-29.4 121.99-31.95 108.89 0ZM111.74-9L113.34-13.6 126.24-13.6 128.09-9 111.74-9ZM179.19-33.45L177.14-29.35Q175.24-30.35 173.04-31.05 170.84-31.75 168.79-31.75L168.79-31.75Q165.99-31.75 164.34-30.48 162.69-29.2 162.69-27L162.69-27Q162.69-25.45 163.79-24.3 164.89-23.15 166.64-22.3 168.39-21.45 170.34-20.7L170.34-20.7Q171.99-20.1 173.61-19.28 175.24-18.45 176.56-17.25 177.89-16.05 178.66-14.28 179.44-12.5 179.44-9.95L179.44-9.95Q179.44-7.05 178.01-4.7 176.59-2.35 173.91-0.98 171.24 0.4 167.44 0.4L167.44 0.4Q165.14 0.4 162.96-0.13 160.79-0.65 158.86-1.53 156.94-2.4 155.39-3.45L155.39-3.45 157.79-7.6Q158.99-6.75 160.54-5.98 162.09-5.2 163.76-4.75 165.44-4.3 166.94-4.3L166.94-4.3Q168.59-4.3 170.19-4.88 171.79-5.45 172.84-6.68 173.89-7.9 173.89-9.9L173.89-9.9Q173.89-11.6 172.96-12.78 172.04-13.95 170.51-14.8 168.99-15.65 167.24-16.3L167.24-16.3Q165.54-16.95 163.79-17.75 162.04-18.55 160.54-19.68 159.04-20.8 158.11-22.48 157.19-24.15 157.19-26.6L157.19-26.6Q157.19-29.5 158.56-31.68 159.94-33.85 162.39-35.1 164.84-36.35 168.04-36.5L168.04-36.5Q171.69-36.5 174.39-35.6 177.09-34.7 179.19-33.45L179.19-33.45ZM211.08-36.3L216.43-36.3 216.43 0 211.08 0 211.08-15.65 192.68-15.65 192.68 0 187.33 0 187.33-36.3 192.68-36.3 192.68-20.75 211.08-20.75 211.08-36.3ZM228.18 0L222.93 0 238.88-37.75 239.18-37.75 255.13 0 249.03 0 237.43-29.4 241.28-31.95 228.18 0ZM231.03-9L232.63-13.6 245.53-13.6 247.38-9 231.03-9ZM267.03-36.3L267.03-22 266.88-20.2 267.63-21.25 281.83-36.3 288.73-36.3 273.73-20.55 289.43 0 282.68 0 269.83-17.2 267.03-14.45 267.03 0 261.63 0 261.63-36.3 267.03-36.3ZM319.58-36.3L324.93-36.3 324.93 0 319.58 0 319.58-15.65 301.18-15.65 301.18 0 295.83 0 295.83-36.3 301.18-36.3 301.18-20.75 319.58-20.75 319.58-36.3ZM335.12-36.3L344.77-36.3Q350.27-36.3 353.45-34.05 356.62-31.8 356.62-27.15L356.62-27.15Q356.62-24.15 355.25-22 353.87-19.85 351.45-18.68 349.02-17.5 345.72-17.35L345.72-17.35 344.92-20.2Q348.77-20.1 351.8-18.88 354.82-17.65 356.6-15.48 358.37-13.3 358.37-10.3L358.37-10.3Q358.37-7.55 357.35-5.58 356.32-3.6 354.6-2.38 352.87-1.15 350.7-0.58 348.52 0 346.17 0L346.17 0 335.12 0 335.12-36.3ZM340.47-20.6L345.72-20.6Q348.52-20.6 349.82-22.2 351.12-23.8 351.12-26L351.12-26Q351.12-28.7 349.45-29.93 347.77-31.15 345.02-31.15L345.02-31.15 340.47-31.15 340.47-20.6ZM340.47-4.95L345.92-4.95Q347.87-4.95 349.45-5.53 351.02-6.1 351.95-7.28 352.87-8.45 352.87-10.25L352.87-10.25Q352.87-12.25 351.8-13.38 350.72-14.5 349.05-14.98 347.37-15.45 345.57-15.45L345.57-15.45 340.47-15.45 340.47-4.95ZM366.97 0L361.72 0 377.67-37.75 377.97-37.75 393.92 0 387.82 0 376.22-29.4 380.07-31.95 366.97 0ZM369.82-9L371.42-13.6 384.32-13.6 386.17-9 369.82-9ZM428.37 0L397.77 0Q398.27-0.65 399.32-2.23 400.37-3.8 401.87-6.05 403.37-8.3 405.09-10.95 406.82-13.6 408.64-16.38 410.47-19.15 412.22-21.78 413.97-24.4 415.44-26.63 416.92-28.85 417.99-30.43 419.07-32 419.52-32.6L419.52-32.6 420.17-31.15 404.22-31.15Q403.22-31.15 402.24-31.53 401.27-31.9 400.62-32.63 399.97-33.35 399.97-34.3L399.97-34.3 399.97-38.1 404.92-38.1 404.92-37.45Q404.92-36.5 405.27-36.4 405.62-36.3 406.47-36.3L406.47-36.3 427.92-36.3 406.52-4.5 406.22-5.15 428.37-5.15 428.37 0ZM433.87-18.1L433.87-18.1Q433.87-21.85 435.29-25.2 436.72-28.55 439.27-31.15 441.82-33.75 445.17-35.23 448.52-36.7 452.37-36.7L452.37-36.7Q456.17-36.7 459.52-35.23 462.87-33.75 465.47-31.15 468.07-28.55 469.52-25.2 470.97-21.85 470.97-18.1L470.97-18.1Q470.97-14.25 469.52-10.9 468.07-7.55 465.49-5 462.92-2.45 459.54-1.03 456.17 0.4 452.37 0.4L452.37 0.4Q448.52 0.4 445.17-1 441.82-2.4 439.27-4.93 436.72-7.45 435.29-10.83 433.87-14.2 433.87-18.1ZM439.37-18.1L439.37-18.1Q439.37-15.3 440.39-12.88 441.42-10.45 443.22-8.63 445.02-6.8 447.39-5.78 449.77-4.75 452.52-4.75L452.52-4.75Q455.22-4.75 457.57-5.78 459.92-6.8 461.69-8.63 463.47-10.45 464.47-12.88 465.47-15.3 465.47-18.1L465.47-18.1Q465.47-20.9 464.44-23.33 463.42-25.75 461.64-27.6 459.87-29.45 457.49-30.5 455.12-31.55 452.42-31.55L452.42-31.55Q449.62-31.55 447.27-30.5 444.92-29.45 443.12-27.6 441.32-25.75 440.34-23.3 439.37-20.85 439.37-18.1ZM473.46-36.3L479.81-36.3 491.51-7.1 488.46-7.65 499.41-36.3 505.71-36.3 489.56 1.7 473.46-36.3ZM509.61 0L504.36 0 520.31-37.75 520.61-37.75 536.56 0 530.46 0 518.86-29.4 522.71-31.95 509.61 0ZM512.46-9L514.06-13.6 526.96-13.6 528.81-9 512.46-9Z" opacity="1" transform="matrix(1,0,0,1,0,0)" fill="#000000" class="wordmark-text-0" data-fill-palette-color="primary" id="text-0"></path></svg></g></svg></g><g transform="matrix(1,0,0,1,297.9430816781409,41.55748111867276)"><svg viewBox="0 0 97.57691832185905 20.7774629807065" height="20.7774629807065" width="97.57691832185905"><g transform="matrix(1,0,0,1,0,0)"><svg width="97.57691832185905" viewBox="2.6500000953674316 -37.099998474121094 177.02999877929688 37.69999694824219" height="20.7774629807065" data-palette-color="#ffffff"><path d="M2.65 0.4L3-2.35Q5.1-2.75 5.83-3.58 6.55-4.4 6.55-6.5L6.55-6.5 6.6-26.65Q6.6-28.2 6.23-28.78 5.85-29.35 4.85-29.35L4.85-29.35Q4.3-29.35 3.8-29.3 3.3-29.25 3.15-29.25L3.15-29.25 2.95-29.5 3.35-32.05 4.65-32 9.2-31.95Q10.9-31.95 13.05-32.02 15.2-32.1 16.05-32.15L16.05-32.15Q21.8-32.15 24.58-29.68 27.35-27.2 27.35-22.95L27.35-22.95Q27.35-20.1 25.73-17.53 24.1-14.95 21.4-13.4 18.7-11.85 15.7-11.85L15.7-11.85 11.45-11.85 11.4-7.45Q11.4-5.3 11.55-4.33 11.7-3.35 12.18-3 12.65-2.65 13.65-2.65L13.65-2.65Q14.45-2.65 15.18-2.7 15.9-2.75 16.15-2.8L16.15-2.8 16.25-2.55 15.8 0.15Q15.2 0.1 13.63 0.05 12.05 0 10.5 0L10.5 0Q8.65 0 5.7 0.15 2.75 0.3 2.65 0.4L2.65 0.4ZM16.5-14.75Q21.9-15.75 21.9-22.1L21.9-22.1Q21.9-25.65 19.85-27.3 17.8-28.95 13.4-28.95L13.4-28.95Q12.55-28.95 12.38-28.83 12.2-28.7 12.15-28.15L12.15-28.15Q11.7-22.35 11.55-15.45L11.55-15.45 16.5-14.75ZM37.9 0.6Q34.9 0.6 32.62-0.83 30.35-2.25 29.07-4.8 27.8-7.35 27.8-10.65L27.8-10.65Q27.8-14.3 29.32-17.2 30.85-20.1 33.55-21.75 36.25-23.4 39.6-23.4L39.6-23.4Q42.6-23.4 44.9-22 47.2-20.6 48.45-18.05 49.7-15.5 49.7-12.15L49.7-12.15Q49.7-8.5 48.17-5.6 46.65-2.7 43.95-1.05 41.25 0.6 37.9 0.6L37.9 0.6ZM39.1-2.45Q41.6-2.45 43.02-4.48 44.45-6.5 44.45-10.15L44.45-10.15Q44.45-14.75 42.77-17.4 41.1-20.05 38.25-20.05L38.25-20.05Q35.75-20.05 34.35-18 32.95-15.95 32.95-12.3L32.95-12.3Q32.95-7.7 34.62-5.08 36.3-2.45 39.1-2.45L39.1-2.45ZM54-2.25Q55.5-2.4 56-3.18 56.5-3.95 56.5-6.1L56.5-6.1 56.5-16.6Q56.5-18.3 56.05-18.98 55.6-19.65 54.5-19.65L54.5-19.65Q54.15-19.65 53.87-19.6 53.6-19.55 53.5-19.5L53.5-19.5 53.25-19.85 53.45-21.85Q55.75-22.25 58.15-22.78 60.55-23.3 61.25-23.45L61.25-23.45 61.65-23.1Q61.55-22.65 61.35-21.1 61.15-19.55 61.2-18.15L61.2-18.15 61.4-18Q62.95-20.3 64.9-21.73 66.84-23.15 68.45-23.15L68.45-23.15Q69.09-23.15 69.55-23.08 70-23 70.09-22.95L70.09-22.95 70.25-22.65Q70.09-21.9 69.77-19.38 69.45-16.85 69.34-14.65L69.34-14.65 66.84-14.5Q66.84-16.7 66.57-17.4 66.3-18.1 65.5-18.1L65.5-18.1Q64.5-18.1 63.42-17.35 62.35-16.6 61.4-15.25L61.4-15.25Q61.35-13.85 61.17-10.58 61-7.3 60.95-5.3L60.95-5.3Q60.95-3.8 61.42-3.23 61.9-2.65 63.2-2.65L63.2-2.65Q63.9-2.65 64.57-2.73 65.25-2.8 65.5-2.8L65.5-2.8 65.59-2.55 65.09 0.15Q64.5 0.1 62.85 0.05 61.2 0 59.4 0L59.4 0Q57.55 0 55.85 0.08 54.15 0.15 53.7 0.2L53.7 0.2 54-2.25ZM81.49 0.6Q77.99 0.6 76.49-0.83 74.99-2.25 74.99-5.5L74.99-5.5 74.99-17.3Q74.99-18.75 74.42-19.28 73.84-19.8 72.19-19.85L72.19-19.85 71.89-20.2 72.14-22.1Q73.79-22.9 75.39-24 76.99-25.1 78.04-25.93 79.09-26.75 79.34-27L79.34-27 80.54-26.5Q80.49-26.25 80.34-25.23 80.19-24.2 80.04-22.45L80.04-22.45 86.74-22.6 86.94-22.45 86.44-19.45 79.84-19.6Q79.49-14.25 79.49-7.85L79.49-7.85Q79.49-5.5 80.32-4.48 81.14-3.45 83.09-3.45L83.09-3.45Q83.79-3.45 84.49-3.65 85.19-3.85 85.67-4.05 86.14-4.25 86.29-4.3L86.29-4.3 86.84-2.85Q86.54-2.6 85.52-1.78 84.49-0.95 83.29-0.18 82.09 0.6 81.49 0.6L81.49 0.6ZM89.69 0.25L89.99-2.2Q92.84-2.55 92.84-5.1L92.84-5.1 92.84-17.8Q92.79-19 92.14-19.38 91.49-19.75 89.64-19.85L89.64-19.85 89.44-20.15 89.79-22.2 92.84-22.75 92.84-23.05Q92.84-27.35 94.32-30.53 95.79-33.7 98.49-35.4 101.19-37.1 104.79-37.1L104.79-37.1Q106.29-37.1 107.57-36.88 108.84-36.65 109.59-36.43 110.34-36.2 110.54-36.1L110.54-36.1 110.69-35.5Q110.54-35.2 110.04-34.13 109.54-33.05 109.04-31.75L109.04-31.75 108.44-31.6Q108.24-31.75 107.52-32.2 106.79-32.65 105.57-33.05 104.34-33.45 102.94-33.45L102.94-33.45Q100.19-33.45 98.92-31.4 97.64-29.35 97.54-24.85L97.54-24.85 97.54-22.45Q100.09-22.45 101.87-22.5 103.64-22.55 104.19-22.6L104.19-22.6 104.39-22.45 103.89-19.45Q103.39-19.5 101.69-19.55 99.99-19.6 97.49-19.6L97.49-19.6 97.29-5.2Q97.29-3.9 97.87-3.28 98.44-2.65 99.64-2.65L99.64-2.65Q100.79-2.65 101.62-2.7 102.44-2.75 102.69-2.75L102.69-2.75 102.79-2.55 102.39 0.15Q101.64 0.15 99.64 0.08 97.64 0 95.74 0L95.74 0Q93.99 0 92.12 0.1 90.24 0.2 89.69 0.25L89.69 0.25ZM115.59 0.6Q112.59 0.6 110.31-0.83 108.04-2.25 106.76-4.8 105.49-7.35 105.49-10.65L105.49-10.65Q105.49-14.3 107.01-17.2 108.54-20.1 111.24-21.75 113.94-23.4 117.29-23.4L117.29-23.4Q120.29-23.4 122.59-22 124.89-20.6 126.14-18.05 127.39-15.5 127.39-12.15L127.39-12.15Q127.39-8.5 125.86-5.6 124.34-2.7 121.64-1.05 118.94 0.6 115.59 0.6L115.59 0.6ZM116.79-2.45Q119.29-2.45 120.71-4.48 122.14-6.5 122.14-10.15L122.14-10.15Q122.14-14.75 120.46-17.4 118.79-20.05 115.94-20.05L115.94-20.05Q113.44-20.05 112.04-18 110.64-15.95 110.64-12.3L110.64-12.3Q110.64-7.7 112.31-5.08 113.99-2.45 116.79-2.45L116.79-2.45ZM130.19 0.55L130.49-2Q131.74-2.3 132.31-2.85 132.89-3.4 133.01-4.23 133.14-5.05 133.14-6.75L133.14-6.75 133.14-30.65Q133.14-32.25 132.76-32.8 132.39-33.35 131.19-33.35L131.19-33.35Q130.49-33.35 130.03-33.3L130.03-33.3 129.84-33.45 130.09-35.6Q134.59-36.15 138.74-37.1L138.74-37.1 139.03-36.3Q138.44-35.1 138.01-25.85 137.59-16.6 137.59-5.05L137.59-5.05Q137.59-3.7 137.96-3.1 138.34-2.5 139.24-2.5L139.24-2.5 140.94-2.6 141.03-2.35 140.59 0.15Q139.94 0.15 139.53 0.1L139.53 0.1Q137.03 0 135.59 0L135.59 0Q133.39 0 130.19 0.55L130.19 0.55ZM143.53 0.6L143.83-1.95Q145.33-2.35 145.98-3.08 146.63-3.8 146.63-5.15L146.63-5.15 146.63-17Q146.63-18.45 146.18-19.1 145.73-19.75 144.68-19.75L144.68-19.75Q144.38-19.75 143.98-19.68 143.58-19.6 143.48-19.55L143.48-19.55 143.68-21.85Q146.13-22.2 148.66-22.73 151.18-23.25 151.93-23.4L151.93-23.4 152.28-22.7Q151.78-21.65 151.46-16.48 151.13-11.3 151.13-5.05L151.13-5.05Q151.13-3.7 151.51-3.13 151.88-2.55 152.78-2.55L152.78-2.55Q153.28-2.55 153.76-2.6 154.23-2.65 154.38-2.65L154.38-2.65 154.48-2.4 154.08 0.15Q153.58 0.1 152.16 0.05 150.73 0 149.13 0L149.13 0Q147.73 0 145.91 0.25 144.08 0.5 143.53 0.6L143.53 0.6ZM148.53-28.55Q147.13-28.55 146.38-29.4 145.63-30.25 145.63-31.55L145.63-31.55Q145.63-33.05 146.58-34.02 147.53-35 149.03-35L149.03-35Q150.38-35 151.16-34.15 151.93-33.3 151.93-32L151.93-32Q151.93-30.5 150.98-29.53 150.03-28.55 148.53-28.55L148.53-28.55ZM167.88 0.6Q164.88 0.6 162.61-0.83 160.33-2.25 159.06-4.8 157.78-7.35 157.78-10.65L157.78-10.65Q157.78-14.3 159.31-17.2 160.83-20.1 163.53-21.75 166.23-23.4 169.58-23.4L169.58-23.4Q172.58-23.4 174.88-22 177.18-20.6 178.43-18.05 179.68-15.5 179.68-12.15L179.68-12.15Q179.68-8.5 178.16-5.6 176.63-2.7 173.93-1.05 171.23 0.6 167.88 0.6L167.88 0.6ZM169.08-2.45Q171.58-2.45 173.01-4.48 174.43-6.5 174.43-10.15L174.43-10.15Q174.43-14.75 172.76-17.4 171.08-20.05 168.23-20.05L168.23-20.05Q165.73-20.05 164.33-18 162.93-15.95 162.93-12.3L162.93-12.3Q162.93-7.7 164.61-5.08 166.28-2.45 169.08-2.45L169.08-2.45Z" opacity="1" transform="matrix(1,0,0,1,0,0)" fill="#000000" class="slogan-text-1" data-fill-palette-color="secondary" id="text-1"></path></svg></g></svg></g></svg></g></svg></g><g transform="matrix(1,0,0,1,403.45699085862987,0)"><svg viewBox="0 0 86.14689274534214 86.14689274534214" height="86.14689274534214" width="86.14689274534214"><g data-palette-color="#ffffff"><rect width="23.54681735039352" height="86.14689274534214" fill="#000000" stroke="transparent" data-fill-palette-color="accent" x="0" fill-opacity="1"></rect><rect width="23.54681735039352" height="86.14689274534214" fill="#000000" stroke="transparent" data-fill-palette-color="accent" x="28.715630915114048" fill-opacity="0.75"></rect><rect width="23.54681735039352" height="86.14689274534214" fill="#000000" stroke="transparent" data-fill-palette-color="accent" x="57.431261830228095" fill-opacity="0.5"></rect></g></svg></g></svg></g><defs></defs></svg><rect width="395.52" height="69.59262407770922" fill="none" stroke="none" visibility="hidden"></rect></g></svg></g></svg>